<?xml version="1.0" encoding="UTF-8" standalone="no"?>
<!DOCTYPE svg PUBLIC "-//W3C//DTD SVG 1.1//EN" "http://www.w3.org/Graphics/SVG/1.1/DTD/svg11.dtd">
<svg width="100%" height="100%" viewBox="0 0 1920 1080" version="1.1" xmlns="http://www.w3.org/2000/svg" xmlns:xlink="http://www.w3.org/1999/xlink" xml:space="preserve" xmlns:serif="http://www.serif.com/" style="fill-rule:evenodd;clip-rule:evenodd;stroke-linecap:round;stroke-linejoin:round;stroke-miterlimit:1.5;">
    <path d="M884,884L874,664L774,643L775,628L870,609L884,573L884,506L874,463L979,266L982,148L966,130C966,130 986.07,65.06 1050,81C1113.93,96.94 1137,112 1137,112L1143,124L1129,139L1131,265L1150,312L1207,449L1213,484L1212,623L1214,641L1314,655L1315,674L1210,697L1209,906L1092,966C1092,966 1081.12,973.709 1055,962C1028.88,950.291 884,884 884,884Z" style="fill:none;stroke:black;stroke-width:4px;"/>
    <path d="M1121,133L1058,114L1035,119C1035,119 1035.47,107.258 1017,114C998.525,120.742 993,139 993,139L989,175L1060,166L1113,176" style="fill:none;stroke:black;stroke-width:4px;"/>
    <path d="M1067,190L1057,258L1080,456" style="fill:none;stroke:black;stroke-width:4px;"/>
    <path d="M901,453C901,453 1002.82,334.211 1048,456" style="fill:none;stroke:black;stroke-width:4px;"/>
    <path d="M1054,477L1063,522L1066,615L1053,647" style="fill:none;stroke:black;stroke-width:4px;"/>
    <path d="M797,632L1133,690L1283,662" style="fill:none;stroke:black;stroke-width:4px;"/>
    <path d="M1082,957L1082,703" style="fill:none;stroke:black;stroke-width:4px;"/>
    <path d="M891,672L893,732L1057,770" style="fill:none;stroke:black;stroke-width:4px;"/>
    <path d="M902,778L905,868L1052,929" style="fill:none;stroke:black;stroke-width:4px;"/>
</svg>
